# Octahedron
o Octahedron
v 1.000000 0.000000 0.000000
v -1.000000 0.000000 0.000000
v 0.000000 1.000000 0.000000
v 0.000000 -1.000000 0.000000
v 0.000000 0.000000 1.000000
v 0.000000 0.000000 -1.000000
vn 0.5774 0.5774 0.5774
vn -0.5774 0.5774 0.5774
vn -0.5774 0.5774 -0.5774
vn 0.5774 0.5774 -0.5774
vn 0.5774 -0.5774 0.5774
vn -0.5774 -0.5774 0.5774
vn -0.5774 -0.5774 -0.5774
vn 0.5774 -0.5774 -0.5774
s 0
f 3//1 5//1 1//1
f 3//2 2//2 5//2
f 3//3 6//3 2//3
f 3//4 1//4 6//4
f 4//5 1//5 5//5
f 4//6 5//6 2//6
f 4//7 2//7 6//7
f 4//8 6//8 1//8

